<?xml version="1.0" encoding="utf-8"?>
<!-- Generator: Adobe Illustrator 18.1.1, SVG Export Plug-In . SVG Version: 6.00 Build 0)  -->
<svg version="1.1" id="Layer_1" xmlns="http://www.w3.org/2000/svg" xmlns:xlink="http://www.w3.org/1999/xlink" x="0px" y="0px"
	 viewBox="-26 462 78 78" enable-background="new -26 462 78 78" xml:space="preserve">
<path fill="#15B339" d="M-54.7,517.3c-2.2,1-4.5,1.6-7,1.9c2.5-1.5,4.4-3.9,5.3-6.7c-2.3,1.4-4.9,2.4-7.7,2.9
	c-2.2-2.4-5.4-3.8-8.8-3.8c-6.7,0-12.1,5.4-12.1,12.1c0,1,0.1,1.9,0.3,2.8c-10.1-0.5-19-5.3-25-12.7c-1,1.8-1.6,3.9-1.6,6.1
	c0,4.2,2.2,7.9,5.4,10.1c-2,0-3.9-0.6-5.5-1.5c0,0,0,0.1,0,0.2c0,5.9,4.2,10.8,9.7,11.9c-1,0.3-2.1,0.4-3.2,0.4
	c-0.8,0-1.5-0.1-2.3-0.2c1.5,4.8,6,8.3,11.3,8.4c-4.1,3.2-9.4,5.2-15,5.2c-1,0-1.9-0.1-2.9-0.2c5.3,3.5,11.7,5.5,18.5,5.5
	c22.3,0,34.5-18.5,34.5-34.5c0-0.5,0-1.1,0-1.6C-58.4,521.9-56.3,519.8-54.7,517.3z"/>
<path fill="#15B339" d="M17.3,492.4v-5.1c0-2.3,0.5-3.5,4.1-3.5h4.5v-8.6h-7.5c-9.2,0-12.3,4.2-12.3,11.5v5.8H0.1v8.6h6.1v25.9h11.2
	V501h7.6l1-8.6H17.3z"/>
</svg>
