<?xml version="1.0" encoding="utf-8"?>
<!-- Generator: Adobe Illustrator 16.0.0, SVG Export Plug-In . SVG Version: 6.00 Build 0)  -->
<!DOCTYPE svg PUBLIC "-//W3C//DTD SVG 1.1//EN" "http://www.w3.org/Graphics/SVG/1.1/DTD/svg11.dtd">
<svg version="1.1" xmlns="http://www.w3.org/2000/svg" xmlns:xlink="http://www.w3.org/1999/xlink" x="0px" y="0px" width="11.84px"
	 height="16px" viewBox="0 0 11.84 16" enable-background="new 0 0 11.84 16" xml:space="preserve">
<g id="dealer_location">
</g>
<g id="calc_black">
</g>
<g id="calc">
	<g>
		<path fill="#231F20" d="M11.04,0.6c0.108,0,0.2,0.091,0.2,0.2v14.4c0,0.108-0.091,0.2-0.2,0.2H0.8c-0.108,0-0.2-0.091-0.2-0.2V0.8
			c0-0.108,0.091-0.2,0.2-0.2H11.04 M11.04,0H0.8C0.36,0,0,0.36,0,0.8v14.4C0,15.64,0.36,16,0.8,16h10.24c0.44,0,0.8-0.36,0.8-0.8
			V0.8C11.84,0.36,11.48,0,11.04,0L11.04,0z"/>
		<path fill="#231F20" d="M9.083,4.823H2.758c-0.749,0-1.358-0.609-1.358-1.357V2.694c0-0.749,0.609-1.357,1.358-1.357h6.325
			c0.749,0,1.358,0.609,1.358,1.357v0.771C10.441,4.214,9.832,4.823,9.083,4.823z M2.758,1.737C2.229,1.737,1.8,2.167,1.8,2.694
			v0.771c0,0.528,0.43,0.957,0.958,0.957h6.325c0.528,0,0.958-0.429,0.958-0.957V2.694c0-0.528-0.43-0.957-0.958-0.957H2.758z"/>
		<path fill="#231F20" d="M3.574,8.2H2c-0.331,0-0.601-0.27-0.601-0.6V6.24c0-0.331,0.27-0.6,0.601-0.6h1.574
			c0.331,0,0.6,0.27,0.6,0.6V7.6C4.174,7.931,3.905,8.2,3.574,8.2z M2,6.04c-0.11,0-0.2,0.089-0.2,0.2V7.6c0,0.11,0.09,0.2,0.2,0.2
			h1.574c0.11,0,0.199-0.089,0.199-0.2V6.24c0-0.11-0.089-0.2-0.199-0.2H2z"/>
		<path fill="#231F20" d="M6.707,8.2H5.134c-0.331,0-0.6-0.27-0.6-0.6V6.24c0-0.331,0.269-0.6,0.6-0.6h1.573
			c0.331,0,0.601,0.27,0.601,0.6V7.6C7.308,7.931,7.038,8.2,6.707,8.2z M5.134,6.04c-0.11,0-0.199,0.089-0.199,0.2V7.6
			c0,0.11,0.089,0.2,0.199,0.2h1.573c0.11,0,0.2-0.089,0.2-0.2V6.24c0-0.11-0.09-0.2-0.2-0.2H5.134z"/>
		<path fill="#231F20" d="M9.84,8.2H8.268c-0.331,0-0.601-0.27-0.601-0.6V6.24c0-0.331,0.27-0.6,0.601-0.6H9.84
			c0.332,0,0.602,0.27,0.602,0.6V7.6C10.441,7.931,10.171,8.2,9.84,8.2z M8.268,6.04c-0.11,0-0.2,0.089-0.2,0.2V7.6
			c0,0.11,0.09,0.2,0.2,0.2H9.84c0.111,0,0.201-0.089,0.201-0.2V6.24c0-0.11-0.09-0.2-0.201-0.2H8.268z"/>
		<path fill="#231F20" d="M3.574,11.4H2c-0.331,0-0.601-0.27-0.601-0.601V9.44c0-0.331,0.27-0.6,0.601-0.6h1.574
			c0.331,0,0.6,0.27,0.6,0.6v1.36C4.174,11.131,3.905,11.4,3.574,11.4z M2,9.24c-0.11,0-0.2,0.089-0.2,0.2v1.36
			C1.8,10.91,1.89,11,2,11h1.574c0.11,0,0.199-0.09,0.199-0.2V9.44c0-0.11-0.089-0.2-0.199-0.2H2z"/>
		<path fill="#231F20" d="M6.707,11.4H5.134c-0.331,0-0.6-0.27-0.6-0.601V9.44c0-0.331,0.269-0.6,0.6-0.6h1.573
			c0.331,0,0.601,0.27,0.601,0.6v1.36C7.308,11.131,7.038,11.4,6.707,11.4z M5.134,9.24c-0.11,0-0.199,0.089-0.199,0.2v1.36
			c0,0.11,0.089,0.2,0.199,0.2h1.573c0.11,0,0.2-0.09,0.2-0.2V9.44c0-0.11-0.09-0.2-0.2-0.2H5.134z"/>
		<path fill="#231F20" d="M9.84,14.56H8.268c-0.331,0-0.601-0.27-0.601-0.6V9.44c0-0.331,0.27-0.6,0.601-0.6H9.84
			c0.332,0,0.602,0.27,0.602,0.6v4.52C10.441,14.291,10.171,14.56,9.84,14.56z M8.268,9.24c-0.11,0-0.2,0.089-0.2,0.2v4.52
			c0,0.11,0.09,0.2,0.2,0.2H9.84c0.111,0,0.201-0.089,0.201-0.2V9.44c0-0.11-0.09-0.2-0.201-0.2H8.268z"/>
		<path fill="#231F20" d="M3.574,14.56H2c-0.331,0-0.601-0.27-0.601-0.6V12.6C1.399,12.269,1.669,12,2,12h1.574
			c0.331,0,0.6,0.27,0.6,0.601v1.36C4.174,14.291,3.905,14.56,3.574,14.56z M2,12.4c-0.11,0-0.2,0.09-0.2,0.2v1.36
			c0,0.11,0.09,0.2,0.2,0.2h1.574c0.11,0,0.199-0.089,0.199-0.2V12.6c0-0.11-0.089-0.2-0.199-0.2H2z"/>
		<path fill="#231F20" d="M6.707,14.56H5.134c-0.331,0-0.6-0.27-0.6-0.6V12.6c0-0.331,0.269-0.601,0.6-0.601h1.573
			c0.331,0,0.601,0.27,0.601,0.601v1.36C7.308,14.291,7.038,14.56,6.707,14.56z M5.134,12.4c-0.11,0-0.199,0.09-0.199,0.2v1.36
			c0,0.11,0.089,0.2,0.199,0.2h1.573c0.11,0,0.2-0.089,0.2-0.2V12.6c0-0.11-0.09-0.2-0.2-0.2H5.134z"/>
		<g>
			<line fill="#FFFFFF" x1="9.055" y1="11.187" x2="9.055" y2="12.213"/>
			<path fill="#231F20" d="M9.055,12.413c-0.11,0-0.2-0.09-0.2-0.2v-1.026c0-0.11,0.09-0.2,0.2-0.2s0.2,0.09,0.2,0.2v1.026
				C9.255,12.323,9.165,12.413,9.055,12.413z"/>
		</g>
		<g>
			<line fill="#FFFFFF" x1="9.567" y1="11.7" x2="8.54" y2="11.7"/>
			<path fill="#231F20" d="M9.567,11.9H8.54c-0.11,0-0.2-0.09-0.2-0.2s0.09-0.2,0.2-0.2h1.027c0.11,0,0.2,0.09,0.2,0.2
				S9.678,11.9,9.567,11.9z"/>
		</g>
	</g>
</g>
</svg>
