<?xml version="1.0" encoding="UTF-8" standalone="no"?>
<svg width="832px" height="676px" viewBox="0 0 832 676" version="1.1" xmlns="http://www.w3.org/2000/svg" xmlns:xlink="http://www.w3.org/1999/xlink" xmlns:sketch="http://www.bohemiancoding.com/sketch/ns">
    <!-- Generator: Sketch 3.1 (8751) - http://www.bohemiancoding.com/sketch -->
    <title>bg</title>
    <desc>Created with Sketch.</desc>
    <defs></defs>
    <g id="Welcome" stroke="none" stroke-width="1" fill="none" fill-rule="evenodd" sketch:type="MSPage">
        <g id="bg" sketch:type="MSArtboardGroup" fill="#6EC0C9">
            <g id="vinyl" sketch:type="MSLayerGroup" transform="translate(31.000000, 20.000000)">
                <path d="M41.5,83 C64.4198171,83 83,64.4198171 83,41.5 C83,18.5801829 64.4198171,0 41.5,0 C18.5801829,0 0,18.5801829 0,41.5 C0,64.4198171 18.5801829,83 41.5,83 Z M45.7879519,30.8558772 C45.7879519,30.8558772 49.4852111,31.7167522 51.8490411,35.3085874 L69.1020348,18.4190155 C69.1020348,18.4190155 65.9695095,11.1087303 56.0813674,8.65483941 C51.930096,16.5431028 45.7879519,30.8558772 45.7879519,30.8558772 Z M41.7712418,50.4509804 C46.5649291,50.4509804 50.4509804,46.5649291 50.4509804,41.7712418 C50.4509804,36.9775546 46.5649291,33.0915033 41.7712418,33.0915033 C36.9775546,33.0915033 33.0915033,36.9775546 33.0915033,41.7712418 C33.0915033,46.5649291 36.9775546,50.4509804 41.7712418,50.4509804 Z" id="Oval-47" sketch:type="MSShapeGroup"></path>
                <circle id="Oval-49" sketch:type="MSShapeGroup" cx="42.0424837" cy="42.0424837" r="4.06862745"></circle>
            </g>
            <g id="vinyl" sketch:type="MSLayerGroup" transform="translate(725.000000, 17.000000)">
                <path d="M41.5,83 C64.4198171,83 83,64.4198171 83,41.5 C83,18.5801829 64.4198171,0 41.5,0 C18.5801829,0 0,18.5801829 0,41.5 C0,64.4198171 18.5801829,83 41.5,83 Z M45.7879519,30.8558772 C45.7879519,30.8558772 49.4852111,31.7167522 51.8490411,35.3085874 L69.1020348,18.4190155 C69.1020348,18.4190155 65.9695095,11.1087303 56.0813674,8.65483941 C51.930096,16.5431028 45.7879519,30.8558772 45.7879519,30.8558772 Z M41.7712418,50.4509804 C46.5649291,50.4509804 50.4509804,46.5649291 50.4509804,41.7712418 C50.4509804,36.9775546 46.5649291,33.0915033 41.7712418,33.0915033 C36.9775546,33.0915033 33.0915033,36.9775546 33.0915033,41.7712418 C33.0915033,46.5649291 36.9775546,50.4509804 41.7712418,50.4509804 Z" id="Oval-47" sketch:type="MSShapeGroup"></path>
                <circle id="Oval-49" sketch:type="MSShapeGroup" cx="42.0424837" cy="42.0424837" r="4.06862745"></circle>
            </g>
            <g id="vinyl" sketch:type="MSLayerGroup" transform="translate(567.000000, 40.000000)">
                <path d="M45,90 C69.8528137,90 90,69.8528137 90,45 C90,20.1471863 69.8528137,0 45,0 C20.1471863,0 0,20.1471863 0,45 C0,69.8528137 20.1471863,90 45,90 Z M49.6495864,33.4581801 C49.6495864,33.4581801 53.6586627,34.391659 56.2218518,38.28642 L74.9299173,19.9724265 C74.9299173,19.9724265 71.5332031,12.0456112 60.8111213,9.38476562 C56.3097426,17.9383042 49.6495864,33.4581801 49.6495864,33.4581801 Z M45.2941176,54.7058824 C50.4920918,54.7058824 54.7058824,50.4920918 54.7058824,45.2941176 C54.7058824,40.0961435 50.4920918,35.8823529 45.2941176,35.8823529 C40.0961435,35.8823529 35.8823529,40.0961435 35.8823529,45.2941176 C35.8823529,50.4920918 40.0961435,54.7058824 45.2941176,54.7058824 Z" id="Oval-47" sketch:type="MSShapeGroup"></path>
                <circle id="Oval-49" sketch:type="MSShapeGroup" cx="45.5882353" cy="45.5882353" r="4.41176471"></circle>
            </g>
            <g id="vinyl" sketch:type="MSLayerGroup" transform="translate(314.000000, 575.000000)">
                <path d="M41.5,83 C64.4198171,83 83,64.4198171 83,41.5 C83,18.5801829 64.4198171,0 41.5,0 C18.5801829,0 0,18.5801829 0,41.5 C0,64.4198171 18.5801829,83 41.5,83 Z M45.7879519,30.8558772 C45.7879519,30.8558772 49.4852111,31.7167522 51.8490411,35.3085874 L69.1020348,18.4190155 C69.1020348,18.4190155 65.9695095,11.1087303 56.0813674,8.65483941 C51.930096,16.5431028 45.7879519,30.8558772 45.7879519,30.8558772 Z M41.7712418,50.4509804 C46.5649291,50.4509804 50.4509804,46.5649291 50.4509804,41.7712418 C50.4509804,36.9775546 46.5649291,33.0915033 41.7712418,33.0915033 C36.9775546,33.0915033 33.0915033,36.9775546 33.0915033,41.7712418 C33.0915033,46.5649291 36.9775546,50.4509804 41.7712418,50.4509804 Z" id="Oval-47" sketch:type="MSShapeGroup"></path>
                <circle id="Oval-49" sketch:type="MSShapeGroup" cx="42.0424837" cy="42.0424837" r="4.06862745"></circle>
            </g>
            <g id="vinyl" sketch:type="MSLayerGroup" transform="translate(181.000000, 546.000000)">
                <path d="M27,54 C41.9116882,54 54,41.9116882 54,27 C54,12.0883118 41.9116882,0 27,0 C12.0883118,0 0,12.0883118 0,27 C0,41.9116882 12.0883118,54 27,54 Z M29.7897518,20.0749081 C29.7897518,20.0749081 32.1951976,20.6349954 33.7331111,22.971852 L44.9579504,11.9834559 C44.9579504,11.9834559 42.9199219,7.22736673 36.4866728,5.63085938 C33.7858456,10.7629825 29.7897518,20.0749081 29.7897518,20.0749081 Z M27.1764706,32.8235294 C30.2952551,32.8235294 32.8235294,30.2952551 32.8235294,27.1764706 C32.8235294,24.0576861 30.2952551,21.5294118 27.1764706,21.5294118 C24.0576861,21.5294118 21.5294118,24.0576861 21.5294118,27.1764706 C21.5294118,30.2952551 24.0576861,32.8235294 27.1764706,32.8235294 Z" id="Oval-47" sketch:type="MSShapeGroup"></path>
                <circle id="Oval-49" sketch:type="MSShapeGroup" cx="27.3529412" cy="27.3529412" r="2.64705882"></circle>
            </g>
            <g id="vinyl" sketch:type="MSLayerGroup" transform="translate(42.000000, 365.000000)">
                <path d="M27,54 C41.9116882,54 54,41.9116882 54,27 C54,12.0883118 41.9116882,0 27,0 C12.0883118,0 0,12.0883118 0,27 C0,41.9116882 12.0883118,54 27,54 Z M29.7897518,20.0749081 C29.7897518,20.0749081 32.1951976,20.6349954 33.7331111,22.971852 L44.9579504,11.9834559 C44.9579504,11.9834559 42.9199219,7.22736673 36.4866728,5.63085938 C33.7858456,10.7629825 29.7897518,20.0749081 29.7897518,20.0749081 Z M27.1764706,32.8235294 C30.2952551,32.8235294 32.8235294,30.2952551 32.8235294,27.1764706 C32.8235294,24.0576861 30.2952551,21.5294118 27.1764706,21.5294118 C24.0576861,21.5294118 21.5294118,24.0576861 21.5294118,27.1764706 C21.5294118,30.2952551 24.0576861,32.8235294 27.1764706,32.8235294 Z" id="Oval-47" sketch:type="MSShapeGroup"></path>
                <circle id="Oval-49" sketch:type="MSShapeGroup" cx="27.3529412" cy="27.3529412" r="2.64705882"></circle>
            </g>
            <g id="vinyl" sketch:type="MSLayerGroup" transform="translate(623.000000, 501.000000)">
                <path d="M27,54 C41.9116882,54 54,41.9116882 54,27 C54,12.0883118 41.9116882,0 27,0 C12.0883118,0 0,12.0883118 0,27 C0,41.9116882 12.0883118,54 27,54 Z M29.7897518,20.0749081 C29.7897518,20.0749081 32.1951976,20.6349954 33.7331111,22.971852 L44.9579504,11.9834559 C44.9579504,11.9834559 42.9199219,7.22736673 36.4866728,5.63085938 C33.7858456,10.7629825 29.7897518,20.0749081 29.7897518,20.0749081 Z M27.1764706,32.8235294 C30.2952551,32.8235294 32.8235294,30.2952551 32.8235294,27.1764706 C32.8235294,24.0576861 30.2952551,21.5294118 27.1764706,21.5294118 C24.0576861,21.5294118 21.5294118,24.0576861 21.5294118,27.1764706 C21.5294118,30.2952551 24.0576861,32.8235294 27.1764706,32.8235294 Z" id="Oval-47" sketch:type="MSShapeGroup"></path>
                <circle id="Oval-49" sketch:type="MSShapeGroup" cx="27.3529412" cy="27.3529412" r="2.64705882"></circle>
            </g>
            <g id="vinyl" sketch:type="MSLayerGroup" transform="translate(730.000000, 597.000000)">
                <path d="M27,54 C41.9116882,54 54,41.9116882 54,27 C54,12.0883118 41.9116882,0 27,0 C12.0883118,0 0,12.0883118 0,27 C0,41.9116882 12.0883118,54 27,54 Z M29.7897518,20.0749081 C29.7897518,20.0749081 32.1951976,20.6349954 33.7331111,22.971852 L44.9579504,11.9834559 C44.9579504,11.9834559 42.9199219,7.22736673 36.4866728,5.63085938 C33.7858456,10.7629825 29.7897518,20.0749081 29.7897518,20.0749081 Z M27.1764706,32.8235294 C30.2952551,32.8235294 32.8235294,30.2952551 32.8235294,27.1764706 C32.8235294,24.0576861 30.2952551,21.5294118 27.1764706,21.5294118 C24.0576861,21.5294118 21.5294118,24.0576861 21.5294118,27.1764706 C21.5294118,30.2952551 24.0576861,32.8235294 27.1764706,32.8235294 Z" id="Oval-47" sketch:type="MSShapeGroup"></path>
                <circle id="Oval-49" sketch:type="MSShapeGroup" cx="27.3529412" cy="27.3529412" r="2.64705882"></circle>
            </g>
            <g id="vinyl" sketch:type="MSLayerGroup" transform="translate(310.000000, 49.000000)">
                <path d="M27,54 C41.9116882,54 54,41.9116882 54,27 C54,12.0883118 41.9116882,0 27,0 C12.0883118,0 0,12.0883118 0,27 C0,41.9116882 12.0883118,54 27,54 Z M29.7897518,20.0749081 C29.7897518,20.0749081 32.1951976,20.6349954 33.7331111,22.971852 L44.9579504,11.9834559 C44.9579504,11.9834559 42.9199219,7.22736673 36.4866728,5.63085938 C33.7858456,10.7629825 29.7897518,20.0749081 29.7897518,20.0749081 Z M27.1764706,32.8235294 C30.2952551,32.8235294 32.8235294,30.2952551 32.8235294,27.1764706 C32.8235294,24.0576861 30.2952551,21.5294118 27.1764706,21.5294118 C24.0576861,21.5294118 21.5294118,24.0576861 21.5294118,27.1764706 C21.5294118,30.2952551 24.0576861,32.8235294 27.1764706,32.8235294 Z" id="Oval-47" sketch:type="MSShapeGroup"></path>
                <circle id="Oval-49" sketch:type="MSShapeGroup" cx="27.3529412" cy="27.3529412" r="2.64705882"></circle>
            </g>
            <g id="vinyl" sketch:type="MSLayerGroup" transform="translate(160.000000, 57.000000)">
                <path d="M53.5,107 C83.0472341,107 107,83.0472341 107,53.5 C107,23.9527659 83.0472341,0 53.5,0 C23.9527659,0 0,23.9527659 0,53.5 C0,83.0472341 23.9527659,107 53.5,107 Z M59.0278416,39.7780586 C59.0278416,39.7780586 63.7941879,40.8878613 66.8415349,45.5182994 L89.0833461,23.7449959 C89.0833461,23.7449959 85.0450304,14.3208933 72.2976665,11.1574436 C66.9460274,21.3266506 59.0278416,39.7780586 59.0278416,39.7780586 Z M53.8496732,65.0392157 C60.0294869,65.0392157 65.0392157,60.0294869 65.0392157,53.8496732 C65.0392157,47.6698595 60.0294869,42.6601307 53.8496732,42.6601307 C47.6698595,42.6601307 42.6601307,47.6698595 42.6601307,53.8496732 C42.6601307,60.0294869 47.6698595,65.0392157 53.8496732,65.0392157 Z M13.5078125,74.3945312 C13.5078125,74.3945312 24.5,99.2480469 53.4707031,99.2480469 C27.5976562,96.0283203 13.5078125,74.3945312 13.5078125,74.3945312 Z M19.9231087,72.5185547 C19.9231087,72.5185547 29.0364743,93.1240234 53.055407,93.1240234 C31.6046687,90.4546234 19.9231087,72.5185547 19.9231087,72.5185547 Z" id="Oval-47" sketch:type="MSShapeGroup"></path>
                <circle id="Oval-49" sketch:type="MSShapeGroup" cx="54.1993464" cy="54.1993464" r="5.24509804"></circle>
            </g>
            <g id="vinyl" sketch:type="MSLayerGroup" transform="translate(696.000000, 478.000000)">
                <path d="M43,86 C66.7482442,86 86,66.7482442 86,43 C86,19.2517558 66.7482442,0 43,0 C19.2517558,0 0,19.2517558 0,43 C0,66.7482442 19.2517558,86 43,86 Z M47.4429381,31.9711499 C47.4429381,31.9711499 51.2738332,32.8631408 53.7231029,36.5848014 L71.5996987,19.0847631 C71.5996987,19.0847631 68.3539496,11.5102507 58.1084048,8.96766493 C53.8070874,17.1410463 47.4429381,31.9711499 47.4429381,31.9711499 Z M43.2810458,52.2745098 C48.2479988,52.2745098 52.2745098,48.2479988 52.2745098,43.2810458 C52.2745098,38.3140927 48.2479988,34.2875817 43.2810458,34.2875817 C38.3140927,34.2875817 34.2875817,38.3140927 34.2875817,43.2810458 C34.2875817,48.2479988 38.3140927,52.2745098 43.2810458,52.2745098 Z M10.8567465,59.7937354 C10.8567465,59.7937354 19.6915888,79.7694582 42.976453,79.7694582 C22.1812938,77.1816406 10.8567465,59.7937354 10.8567465,59.7937354 Z M16.0129658,58.2859412 C16.0129658,58.2859412 23.337727,74.8473459 42.6426635,74.8473459 C25.4018833,72.7018469 16.0129658,58.2859412 16.0129658,58.2859412 Z" id="Oval-47" sketch:type="MSShapeGroup"></path>
                <circle id="Oval-49" sketch:type="MSShapeGroup" cx="43.5620915" cy="43.5620915" r="4.21568627"></circle>
            </g>
            <g id="vinyl" sketch:type="MSLayerGroup" transform="translate(562.000000, 169.000000)">
                <path d="M40,80 C62.09139,80 80,62.09139 80,40 C80,17.90861 62.09139,0 40,0 C17.90861,0 0,17.90861 0,40 C0,62.09139 17.90861,80 40,80 Z M44.1329657,29.7406046 C44.1329657,29.7406046 47.696589,30.5703636 49.9749794,34.0323734 L66.6043709,17.753268 C66.6043709,17.753268 63.5850694,10.70721 54.0543301,8.34201389 C50.0531046,15.9451593 44.1329657,29.7406046 44.1329657,29.7406046 Z M40.2614379,48.627451 C44.8818593,48.627451 48.627451,44.8818593 48.627451,40.2614379 C48.627451,35.6410165 44.8818593,31.8954248 40.2614379,31.8954248 C35.6410165,31.8954248 31.8954248,35.6410165 31.8954248,40.2614379 C31.8954248,44.8818593 35.6410165,48.627451 40.2614379,48.627451 Z M10.0992991,55.6220794 C10.0992991,55.6220794 18.317757,74.2041472 39.9780958,74.2041472 C20.6337617,71.796875 10.0992991,55.6220794 10.0992991,55.6220794 Z M14.8957822,54.2194801 C14.8957822,54.2194801 21.7095135,69.6254381 39.667594,69.6254381 C23.6296588,67.629625 14.8957822,54.2194801 14.8957822,54.2194801 Z" id="Oval-47" sketch:type="MSShapeGroup"></path>
                <circle id="Oval-49" sketch:type="MSShapeGroup" cx="40.5228758" cy="40.5228758" r="3.92156863"></circle>
            </g>
            <g id="vinyl" sketch:type="MSLayerGroup" transform="translate(497.000000, 550.000000)">
                <path d="M53.5,107 C83.0472341,107 107,83.0472341 107,53.5 C107,23.9527659 83.0472341,0 53.5,0 C23.9527659,0 0,23.9527659 0,53.5 C0,83.0472341 23.9527659,107 53.5,107 Z M59.0278416,39.7780586 C59.0278416,39.7780586 63.7941879,40.8878613 66.8415349,45.5182994 L89.0833461,23.7449959 C89.0833461,23.7449959 85.0450304,14.3208933 72.2976665,11.1574436 C66.9460274,21.3266506 59.0278416,39.7780586 59.0278416,39.7780586 Z M53.8496732,65.0392157 C60.0294869,65.0392157 65.0392157,60.0294869 65.0392157,53.8496732 C65.0392157,47.6698595 60.0294869,42.6601307 53.8496732,42.6601307 C47.6698595,42.6601307 42.6601307,47.6698595 42.6601307,53.8496732 C42.6601307,60.0294869 47.6698595,65.0392157 53.8496732,65.0392157 Z M13.5078125,74.3945312 C13.5078125,74.3945312 24.5,99.2480469 53.4707031,99.2480469 C27.5976562,96.0283203 13.5078125,74.3945312 13.5078125,74.3945312 Z M19.9231087,72.5185547 C19.9231087,72.5185547 29.0364743,93.1240234 53.055407,93.1240234 C31.6046687,90.4546234 19.9231087,72.5185547 19.9231087,72.5185547 Z" id="Oval-47" sketch:type="MSShapeGroup"></path>
                <circle id="Oval-49" sketch:type="MSShapeGroup" cx="54.1993464" cy="54.1993464" r="5.24509804"></circle>
            </g>
            <g id="vinyl" sketch:type="MSLayerGroup" transform="translate(699.000000, 191.000000)">
                <path d="M53.5,107 C83.0472341,107 107,83.0472341 107,53.5 C107,23.9527659 83.0472341,0 53.5,0 C23.9527659,0 0,23.9527659 0,53.5 C0,83.0472341 23.9527659,107 53.5,107 Z M59.0278416,39.7780586 C59.0278416,39.7780586 63.7941879,40.8878613 66.8415349,45.5182994 L89.0833461,23.7449959 C89.0833461,23.7449959 85.0450304,14.3208933 72.2976665,11.1574436 C66.9460274,21.3266506 59.0278416,39.7780586 59.0278416,39.7780586 Z M53.8496732,65.0392157 C60.0294869,65.0392157 65.0392157,60.0294869 65.0392157,53.8496732 C65.0392157,47.6698595 60.0294869,42.6601307 53.8496732,42.6601307 C47.6698595,42.6601307 42.6601307,47.6698595 42.6601307,53.8496732 C42.6601307,60.0294869 47.6698595,65.0392157 53.8496732,65.0392157 Z M13.5078125,74.3945312 C13.5078125,74.3945312 24.5,99.2480469 53.4707031,99.2480469 C27.5976562,96.0283203 13.5078125,74.3945312 13.5078125,74.3945312 Z M19.9231087,72.5185547 C19.9231087,72.5185547 29.0364743,93.1240234 53.055407,93.1240234 C31.6046687,90.4546234 19.9231087,72.5185547 19.9231087,72.5185547 Z" id="Oval-47" sketch:type="MSShapeGroup"></path>
                <circle id="Oval-49" sketch:type="MSShapeGroup" cx="54.1993464" cy="54.1993464" r="5.24509804"></circle>
            </g>
            <g id="vinyl" sketch:type="MSLayerGroup" transform="translate(122.000000, 356.000000)">
                <path d="M72.5,145 C112.540644,145 145,112.540644 145,72.5 C145,32.4593556 112.540644,0 72.5,0 C32.4593556,0 0,32.4593556 0,72.5 C0,112.540644 32.4593556,145 72.5,145 Z M79.9910003,53.9048458 C79.9910003,53.9048458 86.4500676,55.408784 90.5796502,61.6836767 L120.720422,32.1777982 C120.720422,32.1777982 115.247938,19.4068181 97.9734732,15.1199002 C90.721252,28.9006013 79.9910003,53.9048458 79.9910003,53.9048458 Z M72.9738562,88.1372549 C81.3483701,88.1372549 88.1372549,81.3483701 88.1372549,72.9738562 C88.1372549,64.5993424 81.3483701,57.8104575 72.9738562,57.8104575 C64.5993424,57.8104575 57.8104575,64.5993424 57.8104575,72.9738562 C57.8104575,81.3483701 64.5993424,88.1372549 72.9738562,88.1372549 Z M18.3049796,100.815019 C18.3049796,100.815019 33.2009346,134.495017 72.4602986,134.495017 C37.398693,130.131836 18.3049796,100.815019 18.3049796,100.815019 Z M26.9986052,98.2728078 C26.9986052,98.2728078 39.3484932,126.196107 71.8975141,126.196107 C42.8287566,122.578695 26.9986052,98.2728078 26.9986052,98.2728078 Z" id="Oval-47" sketch:type="MSShapeGroup"></path>
                <circle id="Oval-49" sketch:type="MSShapeGroup" cx="73.4477124" cy="73.4477124" r="7.10784314"></circle>
            </g>
            <g id="vinyl" sketch:type="MSLayerGroup" transform="translate(672.000000, 122.000000)">
                <path d="M23.5,47 C36.4786916,47 47,36.4786916 47,23.5 C47,10.5213084 36.4786916,0 23.5,0 C10.5213084,0 0,10.5213084 0,23.5 C0,36.4786916 10.5213084,47 23.5,47 Z M25.9281173,17.4726052 C25.9281173,17.4726052 28.0217461,17.9600886 29.3603004,19.9940194 L39.1300679,10.4300449 C39.1300679,10.4300449 37.3562283,6.29048586 31.7569189,4.90093316 C29.4061989,9.3677811 25.9281173,17.4726052 25.9281173,17.4726052 Z M23.6535948,28.5686275 C26.3680924,28.5686275 28.5686275,26.3680924 28.5686275,23.6535948 C28.5686275,20.9390972 26.3680924,18.7385621 23.6535948,18.7385621 C20.9390972,18.7385621 18.7385621,20.9390972 18.7385621,23.6535948 C18.7385621,26.3680924 20.9390972,28.5686275 23.6535948,28.5686275 Z M5.9333382,32.6779717 C5.9333382,32.6779717 10.7616822,43.5949365 23.4871313,43.5949365 C12.122335,42.1806641 5.9333382,32.6779717 5.9333382,32.6779717 Z M8.75127203,31.8539446 C8.75127203,31.8539446 12.7543392,40.9049449 23.3047115,40.9049449 C13.8824246,39.7324047 8.75127203,31.8539446 8.75127203,31.8539446 Z" id="Oval-47" sketch:type="MSShapeGroup"></path>
                <circle id="Oval-49" sketch:type="MSShapeGroup" cx="23.8071895" cy="23.8071895" r="2.30392157"></circle>
            </g>
            <g id="vinyl" sketch:type="MSLayerGroup" transform="translate(303.000000, 302.000000)">
                <path d="M125,250 C194.035594,250 250,194.035594 250,125 C250,55.9644063 194.035594,0 125,0 C55.9644063,0 0,55.9644063 0,125 C0,194.035594 55.9644063,250 125,250 Z M137.915518,92.9393893 C137.915518,92.9393893 149.051841,95.5323861 156.171811,106.351167 L208.138659,55.4789624 C208.138659,55.4789624 198.703342,33.4600311 168.919781,26.0687934 C156.415952,49.8286229 137.915518,92.9393893 137.915518,92.9393893 Z M125.816993,151.960784 C140.25581,151.960784 151.960784,140.25581 151.960784,125.816993 C151.960784,111.378176 140.25581,99.6732026 125.816993,99.6732026 C111.378176,99.6732026 99.6732026,111.378176 99.6732026,125.816993 C99.6732026,140.25581 111.378176,151.960784 125.816993,151.960784 Z M31.5603096,173.818998 C31.5603096,173.818998 57.2429907,231.88796 124.931549,231.88796 C64.4805053,224.365234 31.5603096,173.818998 31.5603096,173.818998 Z M46.5493193,169.435875 C46.5493193,169.435875 67.8422297,217.579494 123.961231,217.579494 C73.8426839,211.342578 46.5493193,169.435875 46.5493193,169.435875 Z" id="Oval-47" sketch:type="MSShapeGroup"></path>
                <circle id="Oval-49" sketch:type="MSShapeGroup" cx="126.633987" cy="126.633987" r="12.254902"></circle>
            </g>
            <g id="vinyl" sketch:type="MSLayerGroup" transform="translate(18.000000, 164.000000)">
                <path d="M76.5,153 C118.749783,153 153,118.749783 153,76.5 C153,34.2502166 118.749783,0 76.5,0 C34.2502166,0 0,34.2502166 0,76.5 C0,118.749783 34.2502166,153 76.5,153 Z M84.4042969,56.8789062 C84.4042969,56.8789062 91.2197266,58.4658203 95.5771481,65.0869141 L127.380859,33.953125 C127.380859,33.953125 121.606445,20.4775391 103.378906,15.9541016 C95.7265625,30.4951172 84.4042969,56.8789062 84.4042969,56.8789062 Z M77,93 C85.836556,93 93,85.836556 93,77 C93,68.163444 85.836556,61 77,61 C68.163444,61 61,68.163444 61,77 C61,85.836556 68.163444,93 77,93 Z" id="Oval-47" sketch:type="MSShapeGroup"></path>
                <circle id="Oval-49" sketch:type="MSShapeGroup" cx="77.5" cy="77.5" r="7.5"></circle>
            </g>
            <g id="vinyl" sketch:type="MSLayerGroup" transform="translate(247.000000, 211.000000)">
                <path d="M38.5,77 C59.7629629,77 77,59.7629629 77,38.5 C77,17.2370371 59.7629629,0 38.5,0 C17.2370371,0 0,17.2370371 0,38.5 C0,59.7629629 17.2370371,77 38.5,77 Z M42.4779795,28.6253319 C42.4779795,28.6253319 45.907967,29.4239749 48.1009177,32.7561594 L64.106707,17.0875204 C64.106707,17.0875204 61.2006293,10.3056896 52.0272927,8.02918837 C48.1761131,15.3472158 42.4779795,28.6253319 42.4779795,28.6253319 Z M38.751634,46.8039216 C43.1987896,46.8039216 46.8039216,43.1987896 46.8039216,38.751634 C46.8039216,34.3044784 43.1987896,30.6993464 38.751634,30.6993464 C34.3044784,30.6993464 30.6993464,34.3044784 30.6993464,38.751634 C30.6993464,43.1987896 34.3044784,46.8039216 38.751634,46.8039216 Z" id="Oval-47" sketch:type="MSShapeGroup"></path>
                <circle id="Oval-49" sketch:type="MSShapeGroup" cx="39.003268" cy="39.003268" r="3.7745098"></circle>
            </g>
            <g id="vinyl" sketch:type="MSLayerGroup" transform="translate(31.000000, 539.000000)">
                <path d="M55,110 C85.3756612,110 110,85.3756612 110,55 C110,24.6243388 85.3756612,0 55,0 C24.6243388,0 0,24.6243388 0,55 C0,85.3756612 24.6243388,110 55,110 Z M60.6828278,40.8933313 C60.6828278,40.8933313 65.5828099,42.0342499 68.7155967,46.7945134 L91.58101,24.4107435 C91.58101,24.4107435 87.4294705,14.7224137 74.3247038,11.4702691 C68.8230188,21.9245941 60.6828278,40.8933313 60.6828278,40.8933313 Z M55.3594771,66.8627451 C61.7125566,66.8627451 66.8627451,61.7125566 66.8627451,55.3594771 C66.8627451,49.0063976 61.7125566,43.8562092 55.3594771,43.8562092 C49.0063976,43.8562092 43.8562092,49.0063976 43.8562092,55.3594771 C43.8562092,61.7125566 49.0063976,66.8627451 55.3594771,66.8627451 Z" id="Oval-47" sketch:type="MSShapeGroup"></path>
                <circle id="Oval-49" sketch:type="MSShapeGroup" cx="55.7189542" cy="55.7189542" r="5.39215686"></circle>
            </g>
            <g id="vinyl" sketch:type="MSLayerGroup" transform="translate(578.000000, 311.000000)">
                <path d="M59,118 C91.5848002,118 118,91.5848002 118,59 C118,26.4151998 91.5848002,0 59,0 C26.4151998,0 0,26.4151998 0,59 C0,91.5848002 26.4151998,118 59,118 Z M65.0961244,43.8673917 C65.0961244,43.8673917 70.3524688,45.0912863 73.7130946,50.1977507 L98.2414471,26.1860703 C98.2414471,26.1860703 93.7879774,15.7931347 79.7301368,12.3044705 C73.8283292,23.51911 65.0961244,43.8673917 65.0961244,43.8673917 Z M59.3856209,71.7254902 C66.2007425,71.7254902 71.7254902,66.2007425 71.7254902,59.3856209 C71.7254902,52.5704993 66.2007425,47.0457516 59.3856209,47.0457516 C52.5704993,47.0457516 47.0457516,52.5704993 47.0457516,59.3856209 C47.0457516,66.2007425 52.5704993,71.7254902 59.3856209,71.7254902 Z" id="Oval-47" sketch:type="MSShapeGroup"></path>
                <circle id="Oval-49" sketch:type="MSShapeGroup" cx="59.7712418" cy="59.7712418" r="5.78431373"></circle>
            </g>
            <g id="vinyl" sketch:type="MSLayerGroup" transform="translate(447.000000, 19.000000)">
                <path d="M38.5,77 C59.7629629,77 77,59.7629629 77,38.5 C77,17.2370371 59.7629629,0 38.5,0 C17.2370371,0 0,17.2370371 0,38.5 C0,59.7629629 17.2370371,77 38.5,77 Z M42.4779795,28.6253319 C42.4779795,28.6253319 45.907967,29.4239749 48.1009177,32.7561594 L64.106707,17.0875204 C64.106707,17.0875204 61.2006293,10.3056896 52.0272927,8.02918837 C48.1761131,15.3472158 42.4779795,28.6253319 42.4779795,28.6253319 Z M38.751634,46.8039216 C43.1987896,46.8039216 46.8039216,43.1987896 46.8039216,38.751634 C46.8039216,34.3044784 43.1987896,30.6993464 38.751634,30.6993464 C34.3044784,30.6993464 30.6993464,34.3044784 30.6993464,38.751634 C30.6993464,43.1987896 34.3044784,46.8039216 38.751634,46.8039216 Z" id="Oval-47" sketch:type="MSShapeGroup"></path>
                <circle id="Oval-49" sketch:type="MSShapeGroup" cx="39.003268" cy="39.003268" r="3.7745098"></circle>
            </g>
            <g id="vinyl" sketch:type="MSLayerGroup" transform="translate(745.000000, 342.000000)">
                <path d="M38.5,77 C59.7629629,77 77,59.7629629 77,38.5 C77,17.2370371 59.7629629,0 38.5,0 C17.2370371,0 0,17.2370371 0,38.5 C0,59.7629629 17.2370371,77 38.5,77 Z M42.4779795,28.6253319 C42.4779795,28.6253319 45.907967,29.4239749 48.1009177,32.7561594 L64.106707,17.0875204 C64.106707,17.0875204 61.2006293,10.3056896 52.0272927,8.02918837 C48.1761131,15.3472158 42.4779795,28.6253319 42.4779795,28.6253319 Z M38.751634,46.8039216 C43.1987896,46.8039216 46.8039216,43.1987896 46.8039216,38.751634 C46.8039216,34.3044784 43.1987896,30.6993464 38.751634,30.6993464 C34.3044784,30.6993464 30.6993464,34.3044784 30.6993464,38.751634 C30.6993464,43.1987896 34.3044784,46.8039216 38.751634,46.8039216 Z" id="Oval-47" sketch:type="MSShapeGroup"></path>
                <circle id="Oval-49" sketch:type="MSShapeGroup" cx="39.003268" cy="39.003268" r="3.7745098"></circle>
            </g>
            <g id="vinyl" sketch:type="MSLayerGroup" transform="translate(364.000000, 117.000000)">
                <path d="M76.5,153 C118.749783,153 153,118.749783 153,76.5 C153,34.2502166 118.749783,0 76.5,0 C34.2502166,0 0,34.2502166 0,76.5 C0,118.749783 34.2502166,153 76.5,153 Z M84.4042969,56.8789062 C84.4042969,56.8789062 91.2197266,58.4658203 95.5771481,65.0869141 L127.380859,33.953125 C127.380859,33.953125 121.606445,20.4775391 103.378906,15.9541016 C95.7265625,30.4951172 84.4042969,56.8789062 84.4042969,56.8789062 Z M77,93 C85.836556,93 93,85.836556 93,77 C93,68.163444 85.836556,61 77,61 C68.163444,61 61,68.163444 61,77 C61,85.836556 68.163444,93 77,93 Z" id="Oval-47" sketch:type="MSShapeGroup"></path>
                <circle id="Oval-49" sketch:type="MSShapeGroup" cx="77.5" cy="77.5" r="7.5"></circle>
            </g>
        </g>
    </g>
</svg>