<?xml version="1.0" encoding="utf-8"?>
<!-- Generator: Adobe Illustrator 18.1.1, SVG Export Plug-In . SVG Version: 6.00 Build 0)  -->
<svg version="1.1" id="Layer_1" xmlns="http://www.w3.org/2000/svg" xmlns:xlink="http://www.w3.org/1999/xlink" x="0px" y="0px"
	 viewBox="-26 462 78 78" enable-background="new -26 462 78 78" xml:space="preserve">
<path fill="#15B339" d="M582.5,506.7c-2.2,1-4.5,1.6-7,1.9c2.5-1.5,4.4-3.9,5.3-6.7c-2.3,1.4-4.9,2.4-7.7,2.9
	c-2.2-2.4-5.4-3.8-8.8-3.8c-6.7,0-12.1,5.4-12.1,12.1c0,1,0.1,1.9,0.3,2.8c-10.1-0.5-19-5.3-25-12.7c-1,1.8-1.6,3.9-1.6,6.1
	c0,4.2,2.2,7.9,5.4,10.1c-2,0-3.9-0.6-5.5-1.5c0,0,0,0.1,0,0.2c0,5.9,4.2,10.8,9.7,11.9c-1,0.3-2.1,0.4-3.2,0.4
	c-0.8,0-1.5-0.1-2.3-0.2c1.5,4.8,6,8.3,11.3,8.4c-4.1,3.2-9.4,5.2-15,5.2c-1,0-1.9-0.1-2.9-0.2c5.3,3.5,11.7,5.5,18.5,5.5
	c22.3,0,34.5-18.5,34.5-34.5c0-0.5,0-1.1,0-1.6C578.8,511.2,580.9,509.1,582.5,506.7z"/>
<path fill="#15B339" d="M318,561.5v-5.1c0-2.3,0.5-3.5,4.1-3.5h4.5v-8.6h-7.5c-9.2,0-12.3,4.2-12.3,11.5v5.8h-6.1v8.6h6.1V596H318
	v-25.9h7.6l1-8.6H318z"/>
<path fill="#15B339" d="M-13.8,502.9l15,5.6L3,527.2l9.4-13.1l13.1,13.1l13.1-52.4L-13.8,502.9z M23.4,519.9l-11.1-11.4l15-20.6
	l-22.4,18l-9.7-3.6l37.6-20.2L23.4,519.9z"/>
<g id="Icon_6_">
	<g>
		<path d="M370.9,287H165.1c-22.6,0-41.1,18.3-41.1,40.7v366.5c0,22.4,18.5,40.7,41.1,40.7h205.7c22.6,0,41.1-18.3,41.1-40.7V327.7
			C412,305.3,393.5,287,370.9,287z M376,655H160V367h216V655z"/>
	</g>
</g>
</svg>
